<?xml version="1.0" encoding="UTF-8"?>
<svg id="Layer_1" data-name="Layer 1" xmlns="http://www.w3.org/2000/svg" viewBox="0 0 1132.68 249.56">
  <defs>
    <style>
      .cls-1 {
        fill: #fff;
        stroke: #231f20;
        stroke-miterlimit: 10;
        stroke-width: .75px;
      }
    </style>
  </defs>
  <path class="cls-1" d="M823.98,40.5h21.93v142.57h81.2v19.28h-103.13V40.5Z"/>
  <path class="cls-1" d="M537.76,84.27h18.84v16.75c5.58-6.9,11.49-11.86,17.74-14.87,6.24-3.01,13.18-4.52,20.82-4.52,16.75,0,28.06,5.84,33.93,17.52,3.23,6.39,4.85,15.54,4.85,27.43v75.69h-20.16v-74.37c0-7.2-1.07-13-3.2-17.41-3.53-7.34-9.92-11.02-19.17-11.02-4.7,0-8.56.48-11.57,1.43-5.44,1.62-10.21,4.85-14.32,9.7-3.3,3.89-5.45,7.92-6.44,12.06-.99,4.15-1.49,10.08-1.49,17.79v61.81h-19.83v-118Z"/>
  <path class="cls-1" d="M229.12,26.96h13.48v13.48h13.48v40.43h-13.48v13.48h-13.48v13.48h-26.63v13.48h13.15v26.96h13.48v53.91h13.48v-13.48h13.48v-13.48h13.48v13.8h-13.48v13.59h-13.48v13.05h-26.96v-13.48h-13.48v-67.39h-13.48v-13.48h-26.96v26.96h-13.48v26.96h-13.48v13.48h-13.48v13.48h-26.96v13.48H26.96v-13.48h-13.48v-13.15H0v-54.24h13.48v-53.91h13.15v-13.48h13.48v-13.48h13.48v-13.48h26.96v-13.48h40.43v-13.48h94.67V0h26.96v13.48h-13.48v13.48ZM108.15,148.26v13.48h-13.48v13.48h-54.56v-13.48h-13.48v-13.48h-13.15v40.43h13.8v13.48h66.74v-13.48h13.8v-13.48h13.48v-26.96h-13.15ZM53.91,67.39h-13.48v13.48h-13.48v26.96h13.48v-13.48h13.15v-13.48h13.48v-13.48h13.8v-13.48h-26.96v13.48ZM81.19,67.39v13.48h-13.8v13.48h-13.48v13.48h26.96v13.48h13.48v13.48h-13.8v-13.48h-26.63v13.48h13.48v13.48h-13.8v-13.48h-13.15v-13.48h-13.48v26.96h13.48v13.48h53.91v-13.48h13.48v-13.48h13.48v-26.96h13.48v-26.96h-13.48v-13.48h-40.11ZM81.19,53.91h40.11v13.15h13.48v13.48h13.48v-13.15h13.48v-13.48h13.48v-13.48h13.48v-13.48h-67.39v13.48h-40.11v13.48ZM215.65,26.96h-13.48v13.8h-13.48v26.63h-13.48v40.43h26.52v-13.48h13.91v-13.48h13.48v-40.43h-13.48v-13.48Z"/>
  <path class="cls-1" d="M765.68,202.39h-29.85v-14.75h-29.15v14.75h-44.25v-14.75h-14.75v-59h14.75v-14.75h14.75v-14.75h14.4v-14.75h29.85v29.5h-14.75v-14.75h-14.75v44.25h-14.75v44.25h14.75v-14.75h14.75v-14.75h14.75v-29.5h14.75v-29.5h14.75v-14.75h29.5v14.75h-14.75v29.5h-14.75v29.5h-14.75v29.5h29.5v-14.75h14.75v-29.5h14.4v-14.75h15.1v14.75h-14.75v29.85h-14.75v14.75h-14.75v14.4Z"/>
  <path class="cls-1" d="M348.7,131.2c4.55-.59,7.6-2.49,9.14-5.72.88-1.77,1.32-4.31,1.32-7.63,0-6.78-2.4-11.7-7.2-14.77-4.8-3.06-11.67-4.59-20.61-4.59-10.34,0-17.67,2.81-21.99,8.41-2.42,3.1-3.99,7.72-4.73,13.84h-18.51c.37-14.58,5.08-24.73,14.14-30.44s19.57-8.56,31.53-8.56c13.87,0,25.13,2.65,33.79,7.93,8.58,5.29,12.88,13.52,12.88,24.68v67.99c0,2.06.42,3.71,1.27,4.95.84,1.25,2.62,1.87,5.34,1.87.88,0,1.87-.06,2.97-.17,1.1-.11,2.28-.27,3.53-.49v14.65c-3.09.88-5.44,1.43-7.05,1.65-1.62.22-3.82.33-6.61.33-6.83,0-11.79-2.43-14.87-7.27-1.62-2.57-2.76-6.21-3.42-10.91-4.04,5.29-9.84,9.88-17.41,13.77-7.57,3.89-15.9,5.84-25.01,5.84-10.95,0-19.89-3.32-26.83-9.96-6.94-6.64-10.41-14.95-10.41-24.93,0-10.93,3.42-19.4,10.25-25.42,6.83-6.02,15.79-9.72,26.88-11.12l31.62-3.96ZM306.94,184.77c4.19,3.3,9.14,4.95,14.87,4.95,6.98,0,13.73-1.61,20.27-4.84,11.02-5.36,16.53-14.12,16.53-26.29v-15.95c-2.42,1.55-5.54,2.84-9.35,3.87-3.81,1.03-7.55,1.77-11.22,2.21l-11.99,1.54c-7.18.95-12.58,2.46-16.21,4.51-6.13,3.45-9.2,8.94-9.2,16.49,0,5.72,2.09,10.22,6.28,13.52Z"/>
  <path class="cls-1" d="M1004.84,131.2c4.55-.59,7.6-2.49,9.14-5.72.88-1.77,1.32-4.31,1.32-7.63,0-6.78-2.4-11.7-7.2-14.77-4.8-3.06-11.67-4.59-20.61-4.59-10.34,0-17.67,2.81-21.99,8.41-2.42,3.1-3.99,7.72-4.73,13.84h-18.51c.37-14.58,5.08-24.73,14.14-30.44,9.06-5.71,19.57-8.56,31.53-8.56,13.87,0,25.13,2.65,33.79,7.93,8.58,5.29,12.88,13.52,12.88,24.68v67.99c0,2.06.42,3.71,1.27,4.95.84,1.25,2.62,1.87,5.34,1.87.88,0,1.87-.06,2.97-.17,1.1-.11,2.28-.27,3.53-.49v14.65c-3.09.88-5.44,1.43-7.05,1.65-1.62.22-3.82.33-6.61.33-6.83,0-11.79-2.43-14.87-7.27-1.62-2.57-2.76-6.21-3.42-10.91-4.04,5.29-9.84,9.88-17.41,13.77-7.57,3.89-15.9,5.84-25.01,5.84-10.95,0-19.89-3.32-26.83-9.96-6.94-6.64-10.41-14.95-10.41-24.93,0-10.93,3.42-19.4,10.25-25.42,6.83-6.02,15.79-9.72,26.88-11.12l31.62-3.96ZM963.09,184.77c4.19,3.3,9.14,4.95,14.87,4.95,6.98,0,13.73-1.61,20.27-4.84,11.02-5.36,16.53-14.12,16.53-26.29v-15.95c-2.42,1.55-5.54,2.84-9.35,3.87-3.81,1.03-7.55,1.77-11.22,2.21l-11.99,1.54c-7.18.95-12.58,2.46-16.21,4.51-6.13,3.45-9.2,8.94-9.2,16.49,0,5.72,2.09,10.22,6.28,13.52Z"/>
  <path class="cls-1" d="M1061.72,107.99v-23.65h47.31v47.31h-23.66v-23.65h-23.65ZM1061.72,178.96v-47.31h23.65v47.31h-23.65ZM1085.37,178.96h23.66v23.65h-23.66v-23.65ZM1109.03,60.68v-23.65h23.65v23.65h-23.65ZM1109.03,178.96v-23.65h23.65v23.65h-23.65Z"/>
  <path class="cls-1" d="M405.59,107.89v-23.61h47.22v47.22h-23.61v-23.61h-23.61ZM405.59,178.73v-47.22h23.61v47.22h-23.61ZM405.59,249.56v-23.61h47.22v23.61h-47.22ZM429.2,178.73h47.22v-47.22h23.61v70.83h-23.61v23.61h-23.61v-23.61h-23.61v-23.61ZM500.03,84.29h23.61v47.22h-23.61v-47.22Z"/>
</svg>