<?xml version="1.0" encoding="UTF-8"?>
<svg id="Layer_5" data-name="Layer 5" xmlns="http://www.w3.org/2000/svg" viewBox="0 0 349.81 308.29">
  <defs>
    <style>
      .cls-1 {
        fill: #000;
        stroke-width: 0px;
      }
    </style>
  </defs>
  <path class="cls-1" d="M345.21,116.33c-18.28,68.47-99.76,98.95-163.03,106.91-21.15,2.66-44.66,3.65-66.88,2.6l-13.76-.84c26.9,14.29,55.51,19.02,101.48,14.14,18.4-1.96,44.31-2.51,57.08,13.84,12.33,15.77,1.46,36.99-13.58,46.85-10.09,6.61-22.49,9.16-34.56,8.31-1.47-.1-2.93-.25-4.39-.46-20.28-2.82-39.26-15.07-56.4-25.56-20.74-12.69-39.74-28.14-56.73-45.51-3.69-3.78-7.3-7.64-10.78-11.61H25v-25h75v-25h25v-25h25v43.87c14.15-8.55,26.9-19.42,37.51-32.1,18.37-21.95,29.13-48.18,33.64-76.27,3.94-24.56,16.83-49.27,38.63-62.44,24.3-14.67,54.31-6.38,73,13.4,20.36,21.54,19.63,52.94,12.43,79.87Z"/>
  <polygon class="cls-1" points="175 0 175 50 150 50 150 25 75 25 75 0 175 0"/>
  <rect class="cls-1" x="25" y="50" width="25" height="100"/>
  <rect class="cls-1" x="50" y="150" width="25" height="25"/>
  <rect class="cls-1" x="50" y="25" width="25" height="25"/>
  <rect class="cls-1" x="150" y="100" width="25" height="50"/>
  <rect class="cls-1" x="175" y="50" width="25" height="50"/>
  <rect class="cls-1" y="175" width="25" height="25"/>
</svg>