<svg width="1440" height="63" viewBox="0 0 1440 63" fill="none" xmlns="http://www.w3.org/2000/svg">
<g clip-path="url(#clip0_91_130)">
<mask id="path-1-inside-1_91_130" fill="white">
<path d="M0 0H1440V63H0V0Z"/>
</mask>
<path d="M0 0H1440V63H0V0Z" fill="white"/>
<path d="M-3.96875 38V26H-1.96875V38H-3.96875ZM-1.96875 38H0.0312501V40H-1.96875V38ZM0.0312501 38V32H2.03125V38H0.0312501ZM2.03125 38H4.03125V40H2.03125V38ZM4.03125 38V26H6.03125V38H4.03125ZM16.0313 38V40H10.0313V38H12.0313V28H10.0313V26H16.0313V28H14.0312V38H16.0313ZM20.0312 40V26H28.0313V28H22.0313V32H28.0313V34H26.0312V36H24.0313V34H22.0313V40H20.0312ZM26.0312 36H28.0313V38H26.0312V36ZM28.0313 38H30.0313V40H28.0313V38ZM28.0313 32V28H30.0313V32H28.0313ZM32.0312 40V26H42.0313V28H34.0313V32H38.0312V34H34.0313V38H42.0313V40H32.0312ZM44.0312 40V26H54.0313V28H46.0313V32H50.0312V34H46.0313V40H44.0312ZM56.0312 40V26H64.0313V28H58.0313V32H64.0313V34H62.0312V36H60.0313V34H58.0313V40H56.0312ZM62.0312 36H64.0313V38H62.0312V36ZM64.0313 38H66.0313V40H64.0313V38ZM64.0313 32V28H66.0313V32H64.0313ZM68.0312 40V28H70.0313V32H76.0313V28H78.0313V40H76.0313V34H70.0313V40H68.0312ZM70.0313 28V26H76.0313V28H70.0313ZM80.0312 40V26H82.0313V28H84.0313V30H82.0313V40H80.0312ZM84.0313 30H86.0312V34H84.0313V30ZM86.0312 30V28H88.0313V26H90.0313V40H88.0313V30H86.0312ZM100.031 38V40H94.0313V38H96.0313V28H94.0313V26H100.031V28H98.0312V38H100.031ZM104.031 40V26H106.031V30H108.031V32H106.031V40H104.031ZM108.031 32H110.031V34H108.031V32ZM110.031 36V34H112.031V26H114.031V40H112.031V36H110.031ZM116.031 38V28H118.031V38H116.031ZM118.031 38H124.031V40H118.031V38ZM118.031 28V26H124.031V28H118.031ZM122.031 34V32H126.031V38H124.031V34H122.031ZM124.031 30V28H126.031V30H124.031ZM134.266 38H136.266V42H134.266V38ZM136.266 38V34H138.266V38H136.266ZM138.266 34V32H140.266V34H138.266ZM140.266 32V28H142.266V32H140.266ZM142.266 28V24H144.266V28H142.266ZM152.5 38V26H154.5V38H152.5ZM160.5 38V40H154.5V38H160.5ZM160.5 26H162.5V38H160.5V26ZM164.5 38V36H166.5V38H164.5ZM164.5 32V28H166.5V32H164.5ZM166.5 38H172.5V40H166.5V38ZM166.5 32H172.5V34H166.5V32ZM166.5 28V26H172.5V28H166.5ZM172.5 38V34H174.5V38H172.5ZM172.5 30V28H174.5V30H172.5ZM176.5 40V26H186.5V28H178.5V32H182.5V34H178.5V38H186.5V40H176.5ZM188.5 40V26H196.5V28H190.5V32H196.5V34H194.5V36H192.5V34H190.5V40H188.5ZM194.5 36H196.5V38H194.5V36ZM196.5 38H198.5V40H196.5V38ZM196.5 32V28H198.5V32H196.5ZM206.734 40V26H214.734V28H208.734V32H214.734V34H212.734V36H210.734V34H208.734V40H206.734ZM212.734 36H214.734V38H212.734V36ZM214.734 38H216.734V40H214.734V38ZM214.734 32V28H216.734V32H214.734ZM218.734 40V26H228.734V28H220.734V32H224.734V34H220.734V38H228.734V40H218.734ZM230.734 38V36H232.734V38H230.734ZM230.734 32V28H232.734V32H230.734ZM232.734 38H238.734V40H232.734V38ZM232.734 32H238.734V34H232.734V32ZM232.734 28V26H238.734V28H232.734ZM238.734 38V34H240.734V38H238.734ZM238.734 30V28H240.734V30H238.734ZM242.734 40V26H252.734V28H244.734V32H248.734V34H244.734V38H252.734V40H242.734ZM254.734 40V28H256.734V32H262.734V28H264.734V40H262.734V34H256.734V40H254.734ZM256.734 28V26H262.734V28H256.734ZM266.734 40V26H274.734V28H268.734V32H274.734V34H272.734V36H270.734V34H268.734V40H266.734ZM272.734 36H274.734V38H272.734V36ZM274.734 38H276.734V40H274.734V38ZM274.734 32V28H276.734V32H274.734ZM278.734 38V28H280.734V38H278.734ZM280.734 38H286.734V40H280.734V38ZM280.734 28V26H286.734V28H280.734ZM286.734 38V36H288.734V38H286.734ZM286.734 30V28H288.734V30H286.734ZM290.734 40V26H292.734V32H298.734V26H300.734V40H298.734V34H292.734V40H290.734ZM310.969 36V30H312.969V36H310.969ZM312.969 36H314.969V40H312.969V36ZM312.969 30V26H314.969V30H312.969ZM314.969 40H316.969V42H314.969V40ZM314.969 26V24H316.969V26H314.969ZM336.969 28V26H338.969V28H336.969ZM352.969 30H350.969V28H352.969V30ZM346.969 30V28H348.969V30H346.969ZM348.969 30H350.969V32H348.969V30ZM360.969 28V26H362.969V28H360.969ZM382.969 42V40H384.969V42H382.969ZM382.969 26V24H384.969V26H382.969ZM384.969 36H386.969V40H384.969V36ZM384.969 30V26H386.969V30H384.969ZM386.969 36V30H388.969V36H386.969ZM399.203 38V26H401.203V38H399.203ZM407.203 38V40H401.203V38H407.203ZM407.203 26H409.203V38H407.203V26ZM411.203 38V36H413.203V38H411.203ZM411.203 32V28H413.203V32H411.203ZM413.203 38H419.203V40H413.203V38ZM413.203 32H419.203V34H413.203V32ZM413.203 28V26H419.203V28H413.203ZM419.203 38V34H421.203V38H419.203ZM419.203 30V28H421.203V30H419.203ZM423.203 40V26H433.203V28H425.203V32H429.203V34H425.203V38H433.203V40H423.203ZM435.203 40V26H443.203V28H437.203V32H443.203V34H441.203V36H439.203V34H437.203V40H435.203ZM441.203 36H443.203V38H441.203V36ZM443.203 38H445.203V40H443.203V38ZM443.203 32V28H445.203V32H443.203ZM453.438 38V36H455.438V38H453.438ZM453.438 32V28H455.438V32H453.438ZM455.438 38H461.438V40H455.438V38ZM455.438 32H461.438V34H455.438V32ZM455.438 28V26H461.438V28H455.438ZM461.438 38V34H463.438V38H461.438ZM461.438 30V28H463.438V30H461.438ZM465.438 28V26H475.438V28H471.438V40H469.438V28H465.438ZM477.438 38V28H479.438V38H477.438ZM485.438 38V40H479.438V38H485.438ZM485.438 26V28H479.438V26H485.438ZM485.438 28H487.438V38H485.438V28ZM489.438 40V26H497.438V28H491.438V32H497.438V34H495.438V36H493.438V34H491.438V40H489.438ZM495.438 36H497.438V38H495.438V36ZM497.438 38H499.438V40H497.438V38ZM497.438 32V28H499.438V32H497.438ZM509.438 38V40H503.438V38H505.438V28H503.438V26H509.438V28H507.438V38H509.438ZM513.438 40V26H523.438V28H515.438V32H519.438V34H515.438V38H523.438V40H513.438ZM525.438 38V36H527.438V38H525.438ZM525.438 32V28H527.438V32H525.438ZM527.438 38H533.438V40H527.438V38ZM527.438 32H533.438V34H527.438V32ZM527.438 28V26H533.438V28H527.438ZM533.438 38V34H535.438V38H533.438ZM533.438 30V28H535.438V30H533.438ZM543.672 38H545.672V42H543.672V38ZM545.672 38V34H547.672V38H545.672ZM547.672 34V32H549.672V34H547.672ZM549.672 32V28H551.672V32H549.672ZM551.672 28V24H553.672V28H551.672ZM561.906 40V26H569.906V28H563.906V32H569.906V34H563.906V40H561.906ZM569.906 32V28H571.906V32H569.906ZM573.906 40V26H581.906V28H575.906V32H581.906V34H579.906V36H577.906V34H575.906V40H573.906ZM579.906 36H581.906V38H579.906V36ZM581.906 38H583.906V40H581.906V38ZM581.906 32V28H583.906V32H581.906ZM585.906 38V28H587.906V38H585.906ZM593.906 38V40H587.906V38H593.906ZM593.906 26V28H587.906V26H593.906ZM593.906 28H595.906V38H593.906V28ZM597.906 28V26H607.906V28H603.906V40H601.906V28H597.906ZM609.906 38V28H611.906V38H609.906ZM617.906 38V40H611.906V38H617.906ZM617.906 26V28H611.906V26H617.906ZM617.906 28H619.906V38H617.906V28ZM621.906 28V26H631.906V28H627.906V40H625.906V28H621.906ZM633.906 30V26H635.906V30H633.906ZM635.906 30H637.906V32H635.906V30ZM637.906 40V32H639.906V40H637.906ZM639.906 32V30H641.906V32H639.906ZM641.906 30V26H643.906V30H641.906ZM645.906 40V26H653.906V28H647.906V32H653.906V34H647.906V40H645.906ZM653.906 32V28H655.906V32H653.906ZM665.906 38V40H659.906V38H661.906V28H659.906V26H665.906V28H663.906V38H665.906ZM669.906 40V26H671.906V30H673.906V32H671.906V40H669.906ZM673.906 32H675.906V34H673.906V32ZM675.906 36V34H677.906V26H679.906V40H677.906V36H675.906ZM681.906 38V28H683.906V38H681.906ZM683.906 38H689.906V40H683.906V38ZM683.906 28V26H689.906V28H683.906ZM687.906 34V32H691.906V38H689.906V34H687.906ZM689.906 30V28H691.906V30H689.906ZM700.141 38H702.141V42H700.141V38ZM702.141 38V34H704.141V38H702.141ZM704.141 34V32H706.141V34H704.141ZM706.141 32V28H708.141V32H706.141ZM708.141 28V24H710.141V28H708.141ZM718.375 38V36H720.375V38H718.375ZM720.375 38H724.375V40H720.375V38ZM722.375 28V26H728.375V28H726.375V38H724.375V28H722.375ZM730.375 38V28H732.375V38H730.375ZM738.375 38V40H732.375V38H738.375ZM738.375 26V28H732.375V26H738.375ZM738.375 28H740.375V38H738.375V28ZM742.375 38V26H744.375V38H742.375ZM750.375 38V40H744.375V38H750.375ZM750.375 26H752.375V38H750.375V26ZM754.375 40V26H762.375V28H756.375V32H762.375V34H760.375V36H758.375V34H756.375V40H754.375ZM760.375 36H762.375V38H760.375V36ZM762.375 38H764.375V40H762.375V38ZM762.375 32V28H764.375V32H762.375ZM766.375 40V26H768.375V30H770.375V32H768.375V40H766.375ZM770.375 32H772.375V34H770.375V32ZM772.375 36V34H774.375V26H776.375V40H774.375V36H772.375ZM778.375 40V26H788.375V28H780.375V32H784.375V34H780.375V38H788.375V40H778.375ZM790.375 30V26H792.375V30H790.375ZM792.375 30H794.375V32H792.375V30ZM794.375 40V32H796.375V40H794.375ZM796.375 32V30H798.375V32H796.375ZM798.375 30V26H800.375V30H798.375ZM808.609 40V26H810.609V28H812.609V30H810.609V40H808.609ZM812.609 30H814.609V34H812.609V30ZM814.609 30V28H816.609V26H818.609V40H816.609V30H814.609ZM820.609 40V28H822.609V32H828.609V28H830.609V40H828.609V34H822.609V40H820.609ZM822.609 28V26H828.609V28H822.609ZM832.609 40V26H840.609V28H834.609V32H840.609V34H834.609V40H832.609ZM840.609 32V28H842.609V32H840.609ZM844.609 40V26H852.609V28H846.609V32H852.609V34H846.609V40H844.609ZM852.609 32V28H854.609V32H852.609ZM864.609 38V40H858.609V38H860.609V28H858.609V26H864.609V28H862.609V38H864.609ZM868.609 40V26H870.609V30H872.609V32H870.609V40H868.609ZM872.609 32H874.609V34H872.609V32ZM874.609 36V34H876.609V26H878.609V40H876.609V36H874.609ZM880.609 38V28H882.609V38H880.609ZM882.609 38H888.609V40H882.609V38ZM882.609 28V26H888.609V28H882.609ZM886.609 34V32H890.609V38H888.609V34H886.609ZM888.609 30V28H890.609V30H888.609ZM898.844 38H900.844V42H898.844V38ZM900.844 38V34H902.844V38H900.844ZM902.844 34V32H904.844V34H902.844ZM904.844 32V28H906.844V32H904.844ZM906.844 28V24H908.844V28H906.844ZM925.078 38V40H919.078V38H921.078V28H919.078V26H925.078V28H923.078V38H925.078ZM929.078 40V26H931.078V30H933.078V32H931.078V40H929.078ZM933.078 32H935.078V34H933.078V32ZM935.078 36V34H937.078V26H939.078V40H937.078V36H935.078ZM941.078 40V26H951.078V28H943.078V32H947.078V34H943.078V40H941.078ZM953.078 38V28H955.078V38H953.078ZM961.078 38V40H955.078V38H961.078ZM961.078 26V28H955.078V26H961.078ZM961.078 28H963.078V38H961.078V28ZM965.078 40V26H973.078V28H967.078V32H973.078V34H971.078V36H969.078V34H967.078V40H965.078ZM971.078 36H973.078V38H971.078V36ZM973.078 38H975.078V40H973.078V38ZM973.078 32V28H975.078V32H973.078ZM977.078 40V26H979.078V28H981.078V30H979.078V40H977.078ZM981.078 30H983.078V34H981.078V30ZM983.078 30V28H985.078V26H987.078V40H985.078V30H983.078ZM989.078 40V28H991.078V32H997.078V28H999.078V40H997.078V34H991.078V40H989.078ZM991.078 28V26H997.078V28H991.078ZM1001.08 28V26H1011.08V28H1007.08V40H1005.08V28H1001.08ZM1021.08 38V40H1015.08V38H1017.08V28H1015.08V26H1021.08V28H1019.08V38H1021.08ZM1025.08 38V28H1027.08V38H1025.08ZM1033.08 38V40H1027.08V38H1033.08ZM1033.08 26V28H1027.08V26H1033.08ZM1033.08 28H1035.08V38H1033.08V28ZM1037.08 40V26H1039.08V30H1041.08V32H1039.08V40H1037.08ZM1041.08 32H1043.08V34H1041.08V32ZM1043.08 36V34H1045.08V26H1047.08V40H1045.08V36H1043.08ZM1055.31 40V28H1057.31V32H1063.31V28H1065.31V40H1063.31V34H1057.31V40H1055.31ZM1057.31 28V26H1063.31V28H1057.31ZM1067.31 40V26H1075.31V28H1069.31V32H1075.31V34H1073.31V36H1071.31V34H1069.31V40H1067.31ZM1073.31 36H1075.31V38H1073.31V36ZM1075.31 38H1077.31V40H1075.31V38ZM1075.31 32V28H1077.31V32H1075.31ZM1079.31 38V28H1081.31V38H1079.31ZM1081.31 38H1087.31V40H1081.31V38ZM1081.31 28V26H1087.31V28H1081.31ZM1087.31 38V36H1089.31V38H1087.31ZM1087.31 30V28H1089.31V30H1087.31ZM1091.31 40V26H1093.31V32H1099.31V26H1101.31V40H1099.31V34H1093.31V40H1091.31ZM1111.31 38V40H1105.31V38H1107.31V28H1105.31V26H1111.31V28H1109.31V38H1111.31ZM1115.31 28V26H1125.31V28H1121.31V40H1119.31V28H1115.31ZM1127.31 40V26H1137.31V28H1129.31V32H1133.31V34H1129.31V38H1137.31V40H1127.31ZM1139.31 38V28H1141.31V38H1139.31ZM1141.31 38H1147.31V40H1141.31V38ZM1141.31 28V26H1147.31V28H1141.31ZM1147.31 38V36H1149.31V38H1147.31ZM1147.31 30V28H1149.31V30H1147.31ZM1151.31 28V26H1161.31V28H1157.31V40H1155.31V28H1151.31ZM1163.31 38V26H1165.31V38H1163.31ZM1171.31 38V40H1165.31V38H1171.31ZM1171.31 26H1173.31V38H1171.31V26ZM1175.31 40V26H1183.31V28H1177.31V32H1183.31V34H1181.31V36H1179.31V34H1177.31V40H1175.31ZM1181.31 36H1183.31V38H1181.31V36ZM1183.31 38H1185.31V40H1183.31V38ZM1183.31 32V28H1185.31V32H1183.31ZM1187.31 40V26H1197.31V28H1189.31V32H1193.31V34H1189.31V38H1197.31V40H1187.31ZM1211.78 34V32H1215.78V30H1217.78V32H1221.78V34H1219.78V36H1217.78V34H1215.78V36H1213.78V34H1211.78ZM1234.39 24.808C1235.43 24.808 1236.37 25.008 1237.2 25.408C1238.03 25.808 1238.74 26.368 1239.33 27.088C1239.93 27.792 1240.37 28.616 1240.68 29.56C1241 30.488 1241.16 31.496 1241.16 32.584C1241.16 33.688 1241.01 34.656 1240.7 35.488C1240.4 36.32 1239.99 37.04 1239.48 37.648C1239.01 38.176 1238.45 38.616 1237.8 38.968C1237.16 39.32 1236.39 39.584 1235.49 39.76C1234.6 39.92 1233.53 40 1232.3 40H1224.14V38.08H1231.73C1232.86 38.08 1233.81 38.032 1234.58 37.936C1235.35 37.824 1235.99 37.648 1236.5 37.408C1237.01 37.168 1237.45 36.848 1237.82 36.448C1238.22 36.032 1238.53 35.512 1238.73 34.888C1238.96 34.248 1239.07 33.488 1239.07 32.608C1239.07 31.68 1238.95 30.832 1238.71 30.064C1238.47 29.296 1238.13 28.648 1237.7 28.12C1237.27 27.592 1236.77 27.232 1236.21 27.04C1235.93 26.88 1235.61 26.76 1235.28 26.68C1234.94 26.6 1234.61 26.56 1234.27 26.56C1233.44 26.56 1232.85 26.744 1232.52 27.112C1232.18 27.48 1232.01 27.936 1232.01 28.48C1232.01 28.976 1232.16 29.368 1232.45 29.656C1232.73 29.928 1233.14 30.064 1233.67 30.064C1234.18 30.064 1234.58 29.92 1234.87 29.632C1235.17 29.328 1235.33 28.92 1235.33 28.408C1235.33 28.088 1235.26 27.76 1235.13 27.424C1235.01 27.072 1234.83 26.776 1234.61 26.536L1236.21 26.776L1236.86 27.28C1236.97 27.536 1237.05 27.768 1237.1 27.976C1237.15 28.168 1237.17 28.376 1237.17 28.6C1237.17 29.272 1237.03 29.856 1236.74 30.352C1236.47 30.832 1236.08 31.208 1235.57 31.48C1235.05 31.736 1234.45 31.864 1233.74 31.864C1232.54 31.864 1231.63 31.552 1231.01 30.928C1230.38 30.288 1230.07 29.48 1230.07 28.504C1230.07 27.816 1230.23 27.192 1230.55 26.632C1230.87 26.072 1231.35 25.632 1231.99 25.312C1232.65 24.976 1233.45 24.808 1234.39 24.808ZM1249.02 24.904C1249.99 24.904 1250.78 25.064 1251.39 25.384C1252.02 25.704 1252.47 26.12 1252.76 26.632C1253.05 27.144 1253.19 27.704 1253.19 28.312C1253.19 29.384 1252.87 30.216 1252.23 30.808C1251.59 31.4 1250.66 31.696 1249.42 31.696C1248.78 31.696 1248.14 31.608 1247.48 31.432C1246.82 31.24 1246.22 31 1245.68 30.712L1246.3 29.104C1246.8 29.36 1247.3 29.568 1247.79 29.728C1248.29 29.872 1248.78 29.944 1249.28 29.944C1249.73 29.944 1250.1 29.888 1250.41 29.776C1250.71 29.648 1250.94 29.472 1251.08 29.248C1251.24 29.008 1251.32 28.712 1251.32 28.36C1251.32 27.848 1251.13 27.432 1250.74 27.112C1250.36 26.776 1249.79 26.608 1249.04 26.608C1248.27 26.608 1247.62 26.752 1247.07 27.04C1246.53 27.328 1246.1 27.712 1245.8 28.192C1245.51 28.672 1245.37 29.216 1245.37 29.824C1245.37 30.48 1245.5 31.064 1245.78 31.576C1246.06 32.072 1246.56 32.56 1247.26 33.04C1247.98 33.504 1248.99 34.024 1250.29 34.6C1251.31 35.048 1252.14 35.464 1252.78 35.848C1253.44 36.232 1253.96 36.624 1254.34 37.024C1254.73 37.408 1255.01 37.832 1255.18 38.296C1255.38 38.744 1255.51 39.272 1255.59 39.88L1253.86 40.24C1253.77 39.776 1253.64 39.384 1253.48 39.064C1253.34 38.728 1253.11 38.416 1252.81 38.128C1252.5 37.84 1252.07 37.544 1251.51 37.24C1250.95 36.92 1250.21 36.56 1249.28 36.16C1247.95 35.568 1246.86 34.976 1246.02 34.384C1245.17 33.776 1244.54 33.104 1244.14 32.368C1243.74 31.616 1243.54 30.752 1243.54 29.776C1243.54 28.896 1243.76 28.088 1244.19 27.352C1244.64 26.616 1245.27 26.024 1246.09 25.576C1246.9 25.128 1247.88 24.904 1249.02 24.904ZM1262.95 26V28H1260.95V26H1262.95ZM1256.95 28V26H1258.95V28H1256.95ZM1258.95 30V28H1260.95V30H1258.95ZM1258.95 26V24H1260.95V26H1258.95ZM1266.95 34V32H1270.95V34H1266.95ZM1276.95 32V34H1272.95V32H1276.95ZM1270.95 38V34H1272.95V38H1270.95ZM1270.95 32V28H1272.95V32H1270.95ZM1286.95 26V28H1284.95V30H1282.95V28H1280.95V26H1282.95V24H1284.95V26H1286.95ZM1298.8 23.464C1298.49 23.464 1298.23 23.352 1298 23.128C1297.78 22.904 1297.67 22.64 1297.67 22.336C1297.67 22.032 1297.78 21.768 1298 21.544C1298.23 21.32 1298.49 21.208 1298.8 21.208C1299.1 21.208 1299.36 21.32 1299.56 21.544C1299.79 21.768 1299.9 22.032 1299.9 22.336C1299.9 22.64 1299.79 22.904 1299.56 23.128C1299.36 23.352 1299.1 23.464 1298.8 23.464ZM1309.66 40V26H1317.66V28H1311.66V38H1317.66V40H1309.66ZM1317.66 38V28H1319.66V38H1317.66ZM1321.66 40V26H1331.66V28H1323.66V32H1327.66V34H1323.66V38H1331.66V40H1321.66ZM1333.66 38V36H1335.66V38H1333.66ZM1333.66 32V28H1335.66V32H1333.66ZM1335.66 38H1341.66V40H1335.66V38ZM1335.66 32H1341.66V34H1335.66V32ZM1335.66 28V26H1341.66V28H1335.66ZM1341.66 38V34H1343.66V38H1341.66ZM1341.66 30V28H1343.66V30H1341.66ZM1353.66 38V40H1347.66V38H1349.66V28H1347.66V26H1353.66V28H1351.66V38H1353.66ZM1357.66 38V28H1359.66V38H1357.66ZM1359.66 38H1365.66V40H1359.66V38ZM1359.66 28V26H1365.66V28H1359.66ZM1363.66 34V32H1367.66V38H1365.66V34H1363.66ZM1365.66 30V28H1367.66V30H1365.66ZM1369.66 40V26H1371.66V30H1373.66V32H1371.66V40H1369.66ZM1373.66 32H1375.66V34H1373.66V32ZM1375.66 36V34H1377.66V26H1379.66V40H1377.66V36H1375.66ZM1387.89 28V26H1397.89V28H1393.89V40H1391.89V28H1387.89ZM1399.89 40V26H1401.89V32H1407.89V26H1409.89V40H1407.89V34H1401.89V40H1399.89ZM1419.89 38V40H1413.89V38H1415.89V28H1413.89V26H1419.89V28H1417.89V38H1419.89ZM1423.89 40V26H1425.89V30H1427.89V32H1425.89V40H1423.89ZM1427.89 32H1429.89V34H1427.89V32ZM1429.89 36V34H1431.89V26H1433.89V40H1431.89V36H1429.89ZM1435.89 40V26H1437.89V32H1439.89V34H1437.89V40H1435.89ZM1439.89 36V34H1441.89V36H1439.89ZM1439.89 32V30H1441.89V32H1439.89ZM1443.89 36V38H1441.89V36H1443.89ZM1443.89 38H1445.89V40H1443.89V38ZM1443.89 30H1441.89V28H1443.89V30ZM1443.89 28V26H1445.89V28H1443.89ZM1455.89 38V40H1449.89V38H1451.89V28H1449.89V26H1455.89V28H1453.89V38H1455.89ZM1459.89 40V26H1461.89V30H1463.89V32H1461.89V40H1459.89ZM1463.89 32H1465.89V34H1463.89V32ZM1465.89 36V34H1467.89V26H1469.89V40H1467.89V36H1465.89ZM1471.89 38V28H1473.89V38H1471.89ZM1473.89 38H1479.89V40H1473.89V38ZM1473.89 28V26H1479.89V28H1473.89ZM1477.89 34V32H1481.89V38H1479.89V34H1477.89ZM1479.89 30V28H1481.89V30H1479.89ZM1490.12 38H1492.13V42H1490.12V38ZM1492.13 38V34H1494.13V38H1492.13ZM1494.13 34V32H1496.12V34H1494.13ZM1496.12 32V28H1498.13V32H1496.12ZM1498.13 28V24H1500.13V28H1498.13ZM1508.36 40V26H1516.36V28H1510.36V32H1516.36V34H1510.36V38H1516.36V40H1508.36ZM1516.36 38V34H1518.36V38H1516.36ZM1516.36 32V28H1518.36V32H1516.36ZM1520.36 40V26H1528.36V28H1522.36V32H1528.36V34H1526.36V36H1524.36V34H1522.36V40H1520.36ZM1526.36 36H1528.36V38H1526.36V36ZM1528.36 38H1530.36V40H1528.36V38ZM1528.36 32V28H1530.36V32H1528.36ZM1532.36 40V28H1534.36V32H1540.36V28H1542.36V40H1540.36V34H1534.36V40H1532.36ZM1534.36 28V26H1540.36V28H1534.36ZM1544.36 40V26H1546.36V30H1548.36V32H1546.36V40H1544.36ZM1548.36 32H1550.36V34H1548.36V32ZM1550.36 36V34H1552.36V26H1554.36V40H1552.36V36H1550.36ZM1556.36 40V26H1564.36V28H1558.36V38H1564.36V40H1556.36ZM1564.36 38V28H1566.36V38H1564.36ZM1576.36 38V40H1570.36V38H1572.36V28H1570.36V26H1576.36V28H1574.36V38H1576.36ZM1580.36 40V26H1582.36V30H1584.36V32H1582.36V40H1580.36ZM1584.36 32H1586.36V34H1584.36V32ZM1586.36 36V34H1588.36V26H1590.36V40H1588.36V36H1586.36ZM1592.36 38V28H1594.36V38H1592.36ZM1594.36 38H1600.36V40H1594.36V38ZM1594.36 28V26H1600.36V28H1594.36ZM1598.36 34V32H1602.36V38H1600.36V34H1598.36ZM1600.36 30V28H1602.36V30H1600.36ZM1610.59 38V34H1612.59V38H1610.59ZM1610.59 32V28H1612.59V32H1610.59ZM1614.59 36V34H1616.59V36H1614.59ZM1614.59 32V34H1612.59V32H1614.59ZM1614.59 26V28H1612.59V26H1614.59ZM1614.59 28H1616.59V32H1614.59V28ZM1618.59 36V38H1616.59V36H1618.59ZM1618.59 38H1620.59V40H1618.59V38ZM1618.59 34H1620.59V36H1618.59V34ZM1612.59 38H1616.59V40H1612.59V38ZM1636.83 38V40H1630.83V38H1632.83V28H1630.83V26H1636.83V28H1634.83V38H1636.83ZM1640.83 40V26H1648.83V28H1642.83V38H1648.83V40H1640.83ZM1648.83 38V28H1650.83V38H1648.83ZM1652.83 40V26H1662.83V28H1654.83V32H1658.83V34H1654.83V38H1662.83V40H1652.83ZM1664.83 40V26H1666.83V30H1668.83V32H1666.83V40H1664.83ZM1668.83 32H1670.83V34H1668.83V32ZM1670.83 36V34H1672.83V26H1674.83V40H1672.83V36H1670.83ZM1676.83 28V26H1686.83V28H1682.83V40H1680.83V28H1676.83ZM1696.83 38V40H1690.83V38H1692.83V28H1690.83V26H1696.83V28H1694.83V38H1696.83ZM1700.83 28V26H1710.83V28H1706.83V40H1704.83V28H1700.83ZM1712.83 30V26H1714.83V30H1712.83ZM1714.83 30H1716.83V32H1714.83V30ZM1716.83 40V32H1718.83V40H1716.83ZM1718.83 32V30H1720.83V32H1718.83ZM1720.83 30V26H1722.83V30H1720.83ZM1731.06 38H1733.06V42H1731.06V38ZM1733.06 38V34H1735.06V38H1733.06ZM1735.06 34V32H1737.06V34H1735.06ZM1737.06 32V28H1739.06V32H1737.06ZM1739.06 28V24H1741.06V28H1739.06ZM1757.3 38V40H1751.3V38H1753.3V28H1751.3V26H1757.3V28H1755.3V38H1757.3ZM1761.3 40V26H1763.3V38H1771.3V40H1761.3ZM1773.3 40V26H1775.3V38H1783.3V40H1773.3ZM1785.3 38V26H1787.3V38H1785.3ZM1793.3 38V40H1787.3V38H1793.3ZM1793.3 26H1795.3V38H1793.3V26ZM1797.3 38V36H1799.3V38H1797.3ZM1797.3 32V28H1799.3V32H1797.3ZM1799.3 38H1805.3V40H1799.3V38ZM1799.3 32H1805.3V34H1799.3V32ZM1799.3 28V26H1805.3V28H1799.3ZM1805.3 38V34H1807.3V38H1805.3ZM1805.3 30V28H1807.3V30H1805.3ZM1809.3 28V26H1819.3V28H1815.3V40H1813.3V28H1809.3ZM1821.3 40V26H1829.3V28H1823.3V32H1829.3V34H1827.3V36H1825.3V34H1823.3V40H1821.3ZM1827.3 36H1829.3V38H1827.3V36ZM1829.3 38H1831.3V40H1829.3V38ZM1829.3 32V28H1831.3V32H1829.3ZM1833.3 40V28H1835.3V32H1841.3V28H1843.3V40H1841.3V34H1835.3V40H1833.3ZM1835.3 28V26H1841.3V28H1835.3ZM1845.3 28V26H1855.3V28H1851.3V40H1849.3V28H1845.3ZM1865.3 38V40H1859.3V38H1861.3V28H1859.3V26H1865.3V28H1863.3V38H1865.3ZM1869.3 38V28H1871.3V38H1869.3ZM1877.3 38V40H1871.3V38H1877.3ZM1877.3 26V28H1871.3V26H1877.3ZM1877.3 28H1879.3V38H1877.3V28ZM1881.3 40V26H1883.3V30H1885.3V32H1883.3V40H1881.3ZM1885.3 32H1887.3V34H1885.3V32ZM1887.3 36V34H1889.3V26H1891.3V40H1889.3V36H1887.3ZM1899.53 38H1901.53V42H1899.53V38ZM1901.53 38V34H1903.53V38H1901.53ZM1903.53 34V32H1905.53V34H1903.53ZM1905.53 32V28H1907.53V32H1905.53ZM1907.53 28V24H1909.53V28H1907.53ZM1917.77 38V28H1919.77V38H1917.77ZM1919.77 38H1925.77V40H1919.77V38ZM1919.77 28V26H1925.77V28H1919.77ZM1923.77 34V32H1927.77V38H1925.77V34H1923.77ZM1925.77 30V28H1927.77V30H1925.77ZM1929.77 40V26H1937.77V28H1931.77V32H1937.77V34H1935.77V36H1933.77V34H1931.77V40H1929.77ZM1935.77 36H1937.77V38H1935.77V36ZM1937.77 38H1939.77V40H1937.77V38ZM1937.77 32V28H1939.77V32H1937.77ZM1941.77 40V28H1943.77V32H1949.77V28H1951.77V40H1949.77V34H1943.77V40H1941.77ZM1943.77 28V26H1949.77V28H1943.77ZM1953.77 40V26H1961.77V28H1955.77V32H1961.77V34H1955.77V40H1953.77ZM1961.77 32V28H1963.77V32H1961.77ZM1965.77 40V26H1967.77V32H1973.77V26H1975.77V40H1973.77V34H1967.77V40H1965.77ZM1985.77 38V40H1979.77V38H1981.77V28H1979.77V26H1985.77V28H1983.77V38H1985.77ZM1989.77 38V28H1991.77V38H1989.77ZM1991.77 38H1997.77V40H1991.77V38ZM1991.77 28V26H1997.77V28H1991.77ZM1997.77 38V36H1999.77V38H1997.77ZM1997.77 30V28H1999.77V30H1997.77ZM2008 40V26H2016V28H2010V38H2016V40H2008ZM2016 38V28H2018V38H2016ZM2020 40V26H2030V28H2022V32H2026V34H2022V38H2030V40H2020ZM2032 38V36H2034V38H2032ZM2032 32V28H2034V32H2032ZM2034 38H2040V40H2034V38ZM2034 32H2040V34H2034V32ZM2034 28V26H2040V28H2034ZM2040 38V34H2042V38H2040ZM2040 30V28H2042V30H2040ZM2052 38V40H2046V38H2048V28H2046V26H2052V28H2050V38H2052ZM2056 38V28H2058V38H2056ZM2058 38H2064V40H2058V38ZM2058 28V26H2064V28H2058ZM2062 34V32H2066V38H2064V34H2062ZM2064 30V28H2066V30H2064ZM2068 40V26H2070V30H2072V32H2070V40H2068ZM2072 32H2074V34H2072V32ZM2074 36V34H2076V26H2078V40H2076V36H2074Z" fill="black"/>
</g>
<path d="M1440 62.5H0V63.5H1440V62.5Z" fill="black" mask="url(#path-1-inside-1_91_130)"/>
<defs>
<clipPath id="clip0_91_130">
<path d="M0 0H1440V63H0V0Z" fill="white"/>
</clipPath>
</defs>
</svg>
