<svg width="23" height="40" viewBox="0 0 23 40" fill="none" xmlns="http://www.w3.org/2000/svg">
<path d="M11.0539 11.8036L11.0539 16.7679L6.08957 16.7679L6.08957 11.8036L11.0539 11.8036ZM16.7681 6.08929L16.7681 11.0536L11.8039 11.0536L11.8039 6.08929L16.7681 6.08929ZM17.5181 5.33929L17.5181 0.375L22.4824 0.375L22.4824 5.33929L17.5181 5.33929ZM5.33957 17.5179L5.33957 22.4821L0.375282 22.4821L0.375282 17.5179L5.33957 17.5179ZM17.5181 34.6607L22.4824 34.6607L22.4824 39.625L17.5181 39.625L17.5181 34.6607ZM6.08957 23.2321L11.0539 23.2321L11.0539 28.1964L6.08957 28.1964L6.08957 23.2321ZM11.8039 28.9464L16.7681 28.9464L16.7681 33.9107L11.8039 33.9107L11.8039 28.9464Z" fill="black" stroke="black" stroke-width="0.75"/>
</svg>
